<svg width="800" height="619" viewBox="0 0 800 619" fill="none" xmlns="http://www.w3.org/2000/svg">
<path d="M129.891 616.539C129.891 617.411 130.369 618.112 130.964 618.112H666.064C666.664 618.112 667.137 617.412 667.137 616.539C667.137 615.666 666.659 614.966 666.064 614.966H130.964C130.369 614.967 129.891 615.667 129.891 616.539Z" fill="#CCCCCC"/>
<path d="M324.267 611.354H305.162V614.725H324.267V611.354Z" fill="#B6B3C5"/>
<path d="M493.4 611.917H474.295V615.288H493.4V611.917Z" fill="#B6B3C5"/>
<path d="M426.676 461.323C425.612 467.759 422.298 473.607 417.324 477.827C412.349 482.047 406.038 484.363 399.516 484.363C392.993 484.363 386.682 482.047 381.707 477.827C376.733 473.607 373.419 467.759 372.355 461.323H302.867V611.914H496.167V461.323H426.676Z" fill="#D6D6E3"/>
<path d="M496.726 599.983H303.43V605.225H496.726V599.983Z" fill="#090814"/>
<path d="M788.255 465.259H10.776C7.919 465.256 5.17993 464.119 3.15973 462.099C1.13952 460.079 0.00317621 457.34 0 454.483L0 10.777C0.00291155 7.91983 1.13914 5.1805 3.15937 3.16008C5.17961 1.13966 7.91883 0.00317668 10.776 0H788.255C791.112 0.00344032 793.851 1.13987 795.871 3.16002C797.891 5.18016 799.028 7.91908 799.031 10.776V454.483C799.028 457.34 797.891 460.079 795.871 462.099C793.851 464.119 791.112 465.256 788.255 465.259Z" fill="#090814"/>
<path d="M778.926 17.056H18.104V446.353H778.926V17.056Z" fill="white"/>
<path d="M422.548 251.491C419.327 251.491 416.138 250.857 413.162 249.624C410.186 248.391 407.483 246.584 405.205 244.307C402.928 242.029 401.122 239.325 399.89 236.349C398.657 233.373 398.023 230.184 398.024 226.963V220.387C398.024 213.883 400.608 207.645 405.207 203.046C409.806 198.447 416.044 195.863 422.548 195.863C422.747 195.858 422.945 195.893 423.131 195.965C423.316 196.038 423.485 196.147 423.628 196.286C423.771 196.425 423.884 196.591 423.961 196.775C424.039 196.958 424.079 197.155 424.079 197.354C424.079 197.554 424.039 197.751 423.961 197.934C423.884 198.118 423.771 198.284 423.628 198.423C423.485 198.562 423.316 198.671 423.131 198.744C422.945 198.816 422.747 198.851 422.548 198.846C416.835 198.846 411.356 201.115 407.317 205.155C403.277 209.194 401.008 214.673 401.008 220.386V226.963C401.008 232.676 403.277 238.155 407.317 242.194C411.357 246.234 416.836 248.503 422.548 248.503C428.261 248.503 433.74 246.234 437.78 242.194C441.82 238.155 444.089 232.676 444.089 226.963V215.122C444.084 214.923 444.119 214.725 444.191 214.539C444.264 214.354 444.373 214.185 444.512 214.042C444.651 213.899 444.817 213.786 445.001 213.709C445.184 213.631 445.381 213.591 445.58 213.591C445.78 213.591 445.977 213.631 446.16 213.709C446.344 213.786 446.51 213.899 446.649 214.042C446.788 214.185 446.897 214.354 446.97 214.539C447.042 214.725 447.077 214.923 447.072 215.122V226.963C447.073 230.184 446.439 233.373 445.206 236.349C443.974 239.325 442.168 242.029 439.89 244.307C437.613 246.584 434.909 248.391 431.934 249.624C428.958 250.857 425.769 251.491 422.548 251.491Z" fill="black"/>
<path d="M376.485 251.491C373.264 251.491 370.075 250.857 367.099 249.624C364.124 248.391 361.42 246.584 359.143 244.307C356.865 242.029 355.059 239.325 353.827 236.349C352.594 233.373 351.96 230.184 351.961 226.963V215.122C351.956 214.923 351.991 214.725 352.063 214.539C352.136 214.354 352.245 214.185 352.384 214.042C352.523 213.899 352.689 213.786 352.873 213.709C353.056 213.631 353.253 213.591 353.453 213.591C353.652 213.591 353.849 213.631 354.032 213.709C354.216 213.786 354.382 213.899 354.521 214.042C354.66 214.185 354.769 214.354 354.842 214.539C354.914 214.725 354.949 214.923 354.944 215.122V226.963C354.944 232.676 357.213 238.155 361.253 242.194C365.293 246.234 370.772 248.503 376.485 248.503C382.197 248.503 387.676 246.234 391.716 242.194C395.756 238.155 398.025 232.676 398.025 226.963V220.387C398.025 217.558 397.468 214.757 396.385 212.144C395.303 209.531 393.716 207.156 391.716 205.156C389.716 203.156 387.341 201.569 384.728 200.487C382.115 199.404 379.314 198.847 376.485 198.847C376.096 198.837 375.727 198.675 375.455 198.397C375.184 198.118 375.032 197.744 375.032 197.355C375.032 196.966 375.184 196.593 375.455 196.314C375.727 196.036 376.096 195.874 376.485 195.864C382.989 195.864 389.226 198.448 393.825 203.047C398.424 207.646 401.008 213.883 401.008 220.387V226.963C401.009 230.184 400.375 233.373 399.142 236.349C397.91 239.325 396.104 242.029 393.827 244.306C391.55 246.584 388.846 248.391 385.871 249.624C382.895 250.856 379.706 251.491 376.485 251.491Z" fill="black"/>
<path d="M445.58 174.497C445.184 174.497 444.805 174.34 444.525 174.06C444.245 173.78 444.088 173.401 444.088 173.005V154.58C444.088 148.867 441.819 143.388 437.779 139.349C433.739 135.309 428.26 133.039 422.547 133.039C416.835 133.039 411.356 135.309 407.316 139.349C403.276 143.388 401.007 148.867 401.007 154.58C401.012 154.779 400.977 154.977 400.905 155.163C400.832 155.348 400.723 155.517 400.584 155.66C400.445 155.803 400.279 155.916 400.095 155.993C399.912 156.071 399.715 156.111 399.515 156.111C399.316 156.111 399.119 156.071 398.936 155.993C398.752 155.916 398.586 155.803 398.447 155.66C398.308 155.517 398.199 155.348 398.126 155.163C398.054 154.977 398.019 154.779 398.024 154.58C398.003 151.346 398.622 148.141 399.846 145.147C401.069 142.154 402.872 139.432 405.151 137.138C407.43 134.844 410.141 133.023 413.126 131.781C416.112 130.539 419.314 129.899 422.547 129.899C425.781 129.899 428.983 130.539 431.969 131.781C434.954 133.023 437.665 134.844 439.944 137.138C442.223 139.432 444.026 142.154 445.249 145.147C446.473 148.141 447.092 151.346 447.071 154.58V173.005C447.071 173.401 446.914 173.78 446.634 174.06C446.355 174.339 445.976 174.497 445.58 174.497Z" fill="black"/>
<path d="M399.517 221.877C399.121 221.877 398.742 221.72 398.462 221.44C398.182 221.16 398.025 220.781 398.025 220.385V154.58C398.025 148.867 395.756 143.388 391.716 139.349C387.676 135.309 382.197 133.039 376.484 133.039C370.772 133.039 365.293 135.309 361.253 139.349C357.213 143.388 354.944 148.867 354.944 154.58V173.005C354.934 173.394 354.772 173.763 354.494 174.035C354.215 174.306 353.842 174.458 353.452 174.458C353.063 174.458 352.69 174.306 352.411 174.035C352.133 173.763 351.971 173.394 351.961 173.005V154.58C351.961 149.73 353.4 144.989 356.094 140.956C358.789 136.923 362.619 133.78 367.1 131.924C371.581 130.068 376.512 129.582 381.269 130.528C386.026 131.474 390.395 133.81 393.825 137.239C396.109 139.511 397.921 142.213 399.154 145.19C400.386 148.167 401.017 151.358 401.008 154.58V220.385C401.008 220.781 400.851 221.16 400.571 221.44C400.292 221.719 399.913 221.877 399.517 221.877Z" fill="black"/>
<path d="M431.236 218.587C431.037 218.592 430.839 218.557 430.653 218.485C430.468 218.412 430.299 218.303 430.156 218.164C430.013 218.025 429.9 217.859 429.823 217.675C429.745 217.492 429.705 217.295 429.705 217.095C429.705 216.896 429.745 216.699 429.823 216.516C429.9 216.332 430.013 216.166 430.156 216.027C430.299 215.888 430.468 215.779 430.653 215.706C430.839 215.634 431.037 215.599 431.236 215.604C436.949 215.604 442.428 213.335 446.467 209.295C450.507 205.255 452.776 199.776 452.776 194.063C452.776 188.351 450.507 182.872 446.467 178.832C442.428 174.792 436.949 172.523 431.236 172.523H427.946C427.557 172.513 427.187 172.351 426.916 172.073C426.644 171.794 426.493 171.421 426.493 171.031C426.493 170.642 426.644 170.269 426.916 169.99C427.187 169.712 427.557 169.55 427.946 169.54H431.236C434.47 169.519 437.675 170.138 440.669 171.362C443.662 172.585 446.384 174.388 448.678 176.667C450.972 178.946 452.792 181.657 454.035 184.642C455.277 187.628 455.917 190.83 455.917 194.063C455.917 197.297 455.277 200.499 454.035 203.485C452.792 206.47 450.972 209.181 448.678 211.46C446.384 213.739 443.662 215.542 440.669 216.765C437.675 217.989 434.47 218.608 431.236 218.587Z" fill="black"/>
<path d="M424.428 172.523C424.229 172.528 424.031 172.493 423.845 172.421C423.66 172.348 423.491 172.239 423.348 172.1C423.205 171.961 423.092 171.795 423.015 171.611C422.937 171.428 422.897 171.231 422.897 171.031C422.897 170.832 422.937 170.635 423.015 170.452C423.092 170.268 423.205 170.102 423.348 169.963C423.491 169.824 423.66 169.715 423.845 169.642C424.031 169.57 424.229 169.535 424.428 169.54C425.969 169.554 427.499 169.263 428.927 168.683C430.355 168.103 431.654 167.246 432.75 166.161C433.845 165.076 434.714 163.784 435.307 162.361C435.9 160.938 436.206 159.412 436.206 157.87C436.206 156.329 435.9 154.803 435.307 153.38C434.714 151.957 433.845 150.665 432.75 149.58C431.654 148.495 430.355 147.638 428.927 147.058C427.499 146.478 425.969 146.187 424.428 146.201H422.548C422.159 146.191 421.789 146.029 421.518 145.751C421.246 145.472 421.095 145.099 421.095 144.709C421.095 144.32 421.246 143.947 421.518 143.668C421.789 143.39 422.159 143.228 422.548 143.218H424.428C426.362 143.202 428.281 143.569 430.072 144.298C431.864 145.028 433.494 146.104 434.867 147.467C436.241 148.829 437.331 150.449 438.075 152.235C438.819 154.021 439.202 155.936 439.202 157.87C439.202 159.805 438.819 161.72 438.075 163.506C437.331 165.292 436.241 166.912 434.867 168.274C433.494 169.637 431.864 170.713 430.072 171.443C428.281 172.172 426.362 172.539 424.428 172.523Z" fill="black"/>
<path d="M424.428 243.417H422.548C422.349 243.422 422.151 243.387 421.965 243.315C421.78 243.242 421.611 243.133 421.468 242.994C421.325 242.855 421.212 242.689 421.135 242.505C421.057 242.322 421.017 242.125 421.017 241.925C421.017 241.726 421.057 241.529 421.135 241.346C421.212 241.162 421.325 240.996 421.468 240.857C421.611 240.718 421.78 240.609 421.965 240.536C422.151 240.464 422.349 240.429 422.548 240.434H424.428C427.504 240.406 430.445 239.164 432.61 236.978C434.775 234.793 435.99 231.841 435.99 228.764C435.99 225.688 434.775 222.736 432.61 220.551C430.445 218.365 427.504 217.123 424.428 217.095C424.039 217.085 423.669 216.923 423.398 216.645C423.126 216.366 422.975 215.993 422.975 215.603C422.975 215.214 423.126 214.841 423.398 214.562C423.669 214.284 424.039 214.122 424.428 214.112C428.293 214.144 431.989 215.702 434.711 218.446C437.433 221.191 438.96 224.899 438.96 228.764C438.96 232.63 437.433 236.338 434.711 239.083C431.989 241.827 428.293 243.385 424.428 243.417Z" fill="black"/>
<path d="M367.796 218.587C361.319 218.546 355.122 215.944 350.556 211.349C345.991 206.755 343.429 200.541 343.429 194.063C343.429 187.586 345.991 181.372 350.556 176.778C355.122 172.183 361.319 169.581 367.796 169.54H371.086C371.285 169.535 371.483 169.57 371.669 169.642C371.854 169.715 372.023 169.824 372.166 169.963C372.309 170.102 372.422 170.268 372.499 170.452C372.577 170.635 372.617 170.832 372.617 171.031C372.617 171.231 372.577 171.428 372.499 171.611C372.422 171.795 372.309 171.961 372.166 172.1C372.023 172.239 371.854 172.348 371.669 172.421C371.483 172.493 371.285 172.528 371.086 172.523H367.796C362.083 172.523 356.604 174.792 352.565 178.832C348.525 182.872 346.256 188.351 346.256 194.063C346.256 199.776 348.525 205.255 352.565 209.295C356.604 213.335 362.083 215.604 367.796 215.604C368.185 215.614 368.554 215.776 368.826 216.054C369.097 216.333 369.249 216.706 369.249 217.095C369.249 217.485 369.097 217.858 368.826 218.137C368.554 218.415 368.185 218.577 367.796 218.587Z" fill="black"/>
<path d="M374.603 172.523C370.738 172.491 367.042 170.933 364.32 168.189C361.598 165.444 360.071 161.736 360.071 157.87C360.071 154.005 361.598 150.297 364.32 147.552C367.042 144.808 370.738 143.25 374.603 143.218H376.483C376.682 143.213 376.88 143.248 377.066 143.32C377.251 143.393 377.42 143.502 377.563 143.641C377.706 143.78 377.819 143.946 377.896 144.13C377.974 144.313 378.014 144.51 378.014 144.709C378.014 144.909 377.974 145.106 377.896 145.289C377.819 145.473 377.706 145.639 377.563 145.778C377.42 145.917 377.251 146.026 377.066 146.099C376.88 146.171 376.682 146.206 376.483 146.201H374.603C371.527 146.229 368.586 147.471 366.421 149.657C364.256 151.842 363.041 154.794 363.041 157.87C363.041 160.947 364.256 163.899 366.421 166.084C368.586 168.27 371.527 169.512 374.603 169.54C374.992 169.55 375.361 169.712 375.633 169.99C375.904 170.269 376.056 170.642 376.056 171.031C376.056 171.421 375.904 171.794 375.633 172.073C375.361 172.351 374.992 172.513 374.603 172.523Z" fill="black"/>
<path d="M376.484 243.417H374.604C370.739 243.385 367.043 241.827 364.321 239.083C361.599 236.338 360.072 232.63 360.072 228.764C360.072 224.899 361.599 221.191 364.321 218.446C367.043 215.702 370.739 214.144 374.604 214.112C374.993 214.122 375.362 214.284 375.634 214.562C375.905 214.841 376.057 215.214 376.057 215.603C376.057 215.993 375.905 216.366 375.634 216.645C375.362 216.923 374.993 217.085 374.604 217.095C371.528 217.123 368.587 218.365 366.422 220.551C364.257 222.736 363.042 225.688 363.042 228.764C363.042 231.841 364.257 234.793 366.422 236.978C368.587 239.164 371.528 240.406 374.604 240.434H376.484C376.683 240.429 376.881 240.464 377.067 240.536C377.252 240.609 377.421 240.718 377.564 240.857C377.707 240.996 377.82 241.162 377.897 241.346C377.975 241.529 378.015 241.726 378.015 241.925C378.015 242.125 377.975 242.322 377.897 242.505C377.82 242.689 377.707 242.855 377.564 242.994C377.421 243.133 377.252 243.242 377.067 243.315C376.881 243.387 376.683 243.422 376.484 243.417Z" fill="black"/>
<path d="M366.88 280.597H344.391C342.422 280.597 340.826 282.193 340.826 284.162C340.826 286.131 342.422 287.727 344.391 287.727H366.88C368.849 287.727 370.445 286.131 370.445 284.162C370.445 282.193 368.849 280.597 366.88 280.597Z" fill="#CCCCCC"/>
<path d="M469.448 280.597H466.157C464.188 280.597 462.592 282.193 462.592 284.162C462.592 286.131 464.188 287.727 466.157 287.727H469.448C471.417 287.727 473.013 286.131 473.013 284.162C473.013 282.193 471.417 280.597 469.448 280.597Z" fill="#CCCCCC"/>
<path d="M490.292 280.597H487.001C485.032 280.597 483.436 282.193 483.436 284.162C483.436 286.131 485.032 287.727 487.001 287.727H490.292C492.261 287.727 493.857 286.131 493.857 284.162C493.857 282.193 492.261 280.597 490.292 280.597Z" fill="#CCCCCC"/>
<path d="M448.057 280.597H384.431C382.462 280.597 380.866 282.193 380.866 284.162C380.866 286.131 382.462 287.727 384.431 287.727H448.057C450.026 287.727 451.622 286.131 451.622 284.162C451.622 282.193 450.026 280.597 448.057 280.597Z" fill="#CCCCCC"/>
<path d="M329.583 326.671H307.094C305.125 326.671 303.529 328.267 303.529 330.236C303.529 332.205 305.125 333.801 307.094 333.801H329.583C331.552 333.801 333.148 332.205 333.148 330.236C333.148 328.267 331.552 326.671 329.583 326.671Z" fill="#CCCCCC"/>
<path d="M432.151 326.671H428.86C426.891 326.671 425.295 328.267 425.295 330.236C425.295 332.205 426.891 333.801 428.86 333.801H432.151C434.12 333.801 435.716 332.205 435.716 330.236C435.716 328.267 434.12 326.671 432.151 326.671Z" fill="#CCCCCC"/>
<path d="M452.994 326.671H449.703C447.734 326.671 446.138 328.267 446.138 330.236C446.138 332.205 447.734 333.801 449.703 333.801H452.994C454.963 333.801 456.559 332.205 456.559 330.236C456.559 328.267 454.963 326.671 452.994 326.671Z" fill="#CCCCCC"/>
<path d="M410.76 326.671H347.134C345.165 326.671 343.569 328.267 343.569 330.236C343.569 332.205 345.165 333.801 347.134 333.801H410.76C412.729 333.801 414.325 332.205 414.325 330.236C414.325 328.267 412.729 326.671 410.76 326.671Z" fill="#CCCCCC"/>
<path d="M451.898 296.503H429.409C427.44 296.503 425.844 298.099 425.844 300.068C425.844 302.037 427.44 303.633 429.409 303.633H451.898C453.867 303.633 455.463 302.037 455.463 300.068C455.463 298.099 453.867 296.503 451.898 296.503Z" fill="#CCCCCC"/>
<path d="M329.583 296.503H307.094C305.125 296.503 303.529 298.099 303.529 300.068C303.529 302.037 305.125 303.633 307.094 303.633H329.583C331.552 303.633 333.148 302.037 333.148 300.068C333.148 298.099 331.552 296.503 329.583 296.503Z" fill="#CCCCCC"/>
<path d="M310.385 280.597H307.094C305.125 280.597 303.529 282.193 303.529 284.162C303.529 286.131 305.125 287.727 307.094 287.727H310.385C312.354 287.727 313.95 286.131 313.95 284.162C313.95 282.193 312.354 280.597 310.385 280.597Z" fill="#CCCCCC"/>
<path d="M310.384 311.861H307.093C305.124 311.861 303.528 313.457 303.528 315.426C303.528 317.395 305.124 318.991 307.093 318.991H310.384C312.353 318.991 313.949 317.395 313.949 315.426C313.949 313.457 312.353 311.861 310.384 311.861Z" fill="#CCCCCC"/>
<path d="M412.405 296.503H348.779C346.81 296.503 345.214 298.099 345.214 300.068C345.214 302.037 346.81 303.633 348.779 303.633H412.405C414.374 303.633 415.97 302.037 415.97 300.068C415.97 298.099 414.374 296.503 412.405 296.503Z" fill="#CCCCCC"/>
<path d="M390.466 311.861H367.977C366.008 311.861 364.412 313.457 364.412 315.426C364.412 317.395 366.008 318.991 367.977 318.991H390.466C392.435 318.991 394.031 317.395 394.031 315.426C394.031 313.457 392.435 311.861 390.466 311.861Z" fill="#CCCCCC"/>
<path d="M350.425 311.861H327.936C325.967 311.861 324.371 313.457 324.371 315.426C324.371 317.395 325.967 318.991 327.936 318.991H350.425C352.394 318.991 353.99 317.395 353.99 315.426C353.99 313.457 352.394 311.861 350.425 311.861Z" fill="#CCCCCC"/>
<path d="M329.059 280.597H325.768C323.799 280.597 322.203 282.193 322.203 284.162C322.203 286.131 323.799 287.727 325.768 287.727H329.059C331.028 287.727 332.624 286.131 332.624 284.162C332.624 282.193 331.028 280.597 329.059 280.597Z" fill="#CCCCCC"/>
<path d="M491.937 311.861H488.646C486.677 311.861 485.081 313.457 485.081 315.426C485.081 317.395 486.677 318.991 488.646 318.991H491.937C493.906 318.991 495.502 317.395 495.502 315.426C495.502 313.457 493.906 311.861 491.937 311.861Z" fill="#CCCCCC"/>
<path d="M471.094 311.861H407.468C405.499 311.861 403.903 313.457 403.903 315.426C403.903 317.395 405.499 318.991 407.468 318.991H471.094C473.063 318.991 474.659 317.395 474.659 315.426C474.659 313.457 473.063 311.861 471.094 311.861Z" fill="#CCCCCC"/>
<path d="M224.765 409.523H147.581C147.172 409.522 146.779 409.36 146.49 409.07C146.2 408.781 146.037 408.388 146.037 407.979V393.435H146.655V407.983C146.655 408.229 146.753 408.464 146.927 408.638C147.101 408.812 147.336 408.91 147.582 408.91H224.766C225.012 408.91 225.247 408.812 225.421 408.638C225.595 408.464 225.693 408.229 225.693 407.983V393.333H226.311V407.983C226.309 408.392 226.146 408.784 225.856 409.072C225.566 409.361 225.174 409.523 224.765 409.523Z" fill="#3F3D56"/>
<path d="M252.745 393.126H71.371V393.744H252.745V393.126Z" fill="#3F3D56"/>
<g filter="url(#filter0_d_1_3)">
<path d="M71.385 398.7C74.3193 398.7 76.698 396.321 76.698 393.387C76.698 390.453 74.3193 388.074 71.385 388.074C68.4507 388.074 66.072 390.453 66.072 393.387C66.072 396.321 68.4507 398.7 71.385 398.7Z" fill="#6C63FF"/>
</g>
<g filter="url(#filter1_d_1_3)">
<path d="M125.375 398.7C128.309 398.7 130.688 396.321 130.688 393.387C130.688 390.453 128.309 388.074 125.375 388.074C122.441 388.074 120.062 390.453 120.062 393.387C120.062 396.321 122.441 398.7 125.375 398.7Z" fill="#6C63FF"/>
</g>
<path d="M162.018 414.316C164.952 414.316 167.331 411.937 167.331 409.003C167.331 406.069 164.952 403.69 162.018 403.69C159.084 403.69 156.705 406.069 156.705 409.003C156.705 411.937 159.084 414.316 162.018 414.316Z" fill="#3F3D56"/>
<path d="M189.873 414.316C192.807 414.316 195.186 411.937 195.186 409.003C195.186 406.069 192.807 403.69 189.873 403.69C186.939 403.69 184.56 406.069 184.56 409.003C184.56 411.937 186.939 414.316 189.873 414.316Z" fill="#CCCCCC"/>
<g filter="url(#filter2_d_1_3)">
<path d="M176.375 398.7C179.309 398.7 181.688 396.321 181.688 393.387C181.688 390.453 179.309 388.074 176.375 388.074C173.441 388.074 171.062 390.453 171.062 393.387C171.062 396.321 173.441 398.7 176.375 398.7Z" fill="#6C63FF"/>
</g>
<g filter="url(#filter3_d_1_3)">
<path d="M252.016 398.7C254.95 398.7 257.329 396.321 257.329 393.387C257.329 390.453 254.95 388.074 252.016 388.074C249.082 388.074 246.703 390.453 246.703 393.387C246.703 396.321 249.082 398.7 252.016 398.7Z" fill="#6C63FF"/>
</g>
<g filter="url(#filter4_d_1_3)">
<path d="M226 398.7C228.934 398.7 231.313 396.321 231.313 393.387C231.313 390.453 228.934 388.074 226 388.074C223.066 388.074 220.687 390.453 220.687 393.387C220.687 396.321 223.066 398.7 226 398.7Z" fill="#6C63FF"/>
</g>
<path d="M87.86 393.744C87.778 393.744 87.6994 393.711 87.6414 393.654C87.5835 393.596 87.551 393.517 87.551 393.435V378.189C87.5515 377.78 87.7143 377.387 88.0038 377.098C88.2932 376.808 88.6856 376.646 89.0949 376.645H104.13C104.212 376.645 104.291 376.678 104.348 376.736C104.406 376.793 104.439 376.872 104.439 376.954C104.439 377.036 104.406 377.115 104.348 377.172C104.291 377.23 104.212 377.263 104.13 377.263H89.0999C88.8542 377.263 88.6186 377.361 88.4448 377.535C88.271 377.709 88.1732 377.944 88.1729 378.19V393.436C88.1729 393.518 88.1404 393.597 88.0825 393.654C88.0245 393.712 87.9459 393.745 87.864 393.745L87.86 393.744Z" fill="#3F3D56"/>
<path d="M104.836 382.151C107.77 382.151 110.149 379.772 110.149 376.838C110.149 373.904 107.77 371.525 104.836 371.525C101.902 371.525 99.5229 373.904 99.5229 376.838C99.5229 379.772 101.902 382.151 104.836 382.151Z" fill="#E6E6E6"/>
<path d="M206.773 393.435H206.155V378.189C206.156 377.78 206.318 377.387 206.608 377.098C206.897 376.808 207.29 376.646 207.699 376.645H222.734V377.263H207.704C207.458 377.263 207.223 377.361 207.049 377.535C206.875 377.709 206.777 377.944 206.777 378.19L206.773 393.435Z" fill="#3F3D56"/>
<path d="M223.442 382.151C226.376 382.151 228.755 379.772 228.755 376.838C228.755 373.904 226.376 371.525 223.442 371.525C220.508 371.525 218.129 373.904 218.129 376.838C218.129 379.772 220.508 382.151 223.442 382.151Z" fill="#E6E6E6"/>
<path d="M571.528 337.863C569.307 337.863 567.501 338.655 567.501 339.627V341.038C567.501 342.011 569.307 342.802 571.528 342.802H664.962C667.183 342.802 668.989 342.01 668.989 341.038V339.627C668.989 338.654 667.183 337.863 664.962 337.863H571.528Z" fill="#F2F2F2"/>
<path d="M747.12 375.843C751.12 375.843 754.369 377.593 754.369 379.743V410.094C754.369 412.246 751.117 413.994 747.12 413.994H574.75C570.75 413.994 567.501 412.244 567.501 410.094V379.745C567.501 377.593 570.753 375.845 574.75 375.845" fill="#F2F2F2"/>
<path d="M571.528 347.465C569.307 347.465 567.501 348.438 567.501 349.633C567.501 350.828 569.307 351.801 571.528 351.801H714.901C717.122 351.801 718.928 350.828 718.928 349.633C718.928 348.438 717.122 347.465 714.901 347.465H571.528Z" fill="#F2F2F2"/>
<path d="M571.528 356.465C569.307 356.465 567.501 357.438 567.501 358.633C567.501 359.828 569.307 360.801 571.528 360.801H714.901C717.122 360.801 718.928 359.828 718.928 358.633C718.928 357.438 717.122 356.465 714.901 356.465H571.528Z" fill="#F2F2F2"/>
<g filter="url(#filter5_d_1_3)">
<path d="M119.342 54.205H67.753C67.3065 54.205 66.8783 54.0276 66.5626 53.7119C66.2469 53.3962 66.0695 52.968 66.0695 52.5215C66.0695 52.075 66.2469 51.6468 66.5626 51.3311C66.8783 51.0154 67.3065 50.838 67.753 50.838H119.342C119.789 50.838 120.217 51.0154 120.532 51.3311C120.848 51.6468 121.026 52.075 121.026 52.5215C121.026 52.968 120.848 53.3962 120.532 53.7119C120.217 54.0276 119.789 54.205 119.342 54.205Z" fill="#6C63FF"/>
</g>
<g filter="url(#filter6_d_1_3)">
<path d="M90.114 60.851H67.753C67.3065 60.851 66.8783 60.6736 66.5626 60.3579C66.2469 60.0422 66.0695 59.614 66.0695 59.1675C66.0695 58.721 66.2469 58.2928 66.5626 57.9771C66.8783 57.6614 67.3065 57.484 67.753 57.484H90.114C90.5605 57.484 90.9887 57.6614 91.3044 57.9771C91.6202 58.2928 91.7975 58.721 91.7975 59.1675C91.7975 59.614 91.6202 60.0422 91.3044 60.3579C90.9887 60.6736 90.5605 60.851 90.114 60.851Z" fill="#6C63FF"/>
</g>
<g filter="url(#filter7_d_1_3)">
<path d="M136.477 62.531C140.17 62.531 143.163 59.5376 143.163 55.845C143.163 52.1524 140.17 49.159 136.477 49.159C132.784 49.159 129.791 52.1524 129.791 55.845C129.791 59.5376 132.784 62.531 136.477 62.531Z" fill="#6C63FF"/>
</g>
<path d="M135.367 58.248H135.324C135.199 58.2417 135.076 58.2085 134.964 58.1505C134.853 58.0925 134.755 58.0112 134.678 57.912L133.56 56.478C133.489 56.3873 133.438 56.2835 133.407 56.1727C133.377 56.0619 133.368 55.9462 133.383 55.8321C133.397 55.7181 133.434 55.608 133.49 55.5081C133.547 55.4082 133.623 55.3205 133.714 55.25L133.754 55.218C133.845 55.1474 133.948 55.0953 134.059 55.0648C134.17 55.0343 134.286 55.0259 134.4 55.0402C134.514 55.0546 134.624 55.0912 134.724 55.1482C134.824 55.2051 134.912 55.2812 134.982 55.372C135.038 55.4445 135.11 55.5038 135.191 55.5461C135.273 55.5884 135.363 55.6126 135.454 55.6171C135.546 55.6216 135.638 55.6062 135.723 55.572C135.808 55.5378 135.885 55.4856 135.948 55.419L138.215 53.019C138.375 52.8507 138.595 52.7526 138.826 52.7462C139.058 52.7399 139.283 52.8257 139.452 52.985L139.489 53.02C139.573 53.099 139.64 53.1936 139.687 53.2985C139.734 53.4034 139.759 53.5165 139.763 53.6314C139.766 53.7463 139.746 53.8608 139.705 53.9681C139.664 54.0754 139.602 54.1737 139.523 54.257L136.002 57.973C135.92 58.0593 135.822 58.128 135.713 58.175C135.603 58.2219 135.486 58.2461 135.367 58.246V58.248Z" fill="white"/>
<g filter="url(#filter8_d_1_3)">
<path d="M119.342 89.785H67.753C67.3065 89.785 66.8783 89.6076 66.5626 89.2919C66.2469 88.9762 66.0695 88.548 66.0695 88.1015C66.0695 87.655 66.2469 87.2268 66.5626 86.9111C66.8783 86.5954 67.3065 86.418 67.753 86.418H119.342C119.789 86.418 120.217 86.5954 120.532 86.9111C120.848 87.2268 121.026 87.655 121.026 88.1015C121.026 88.548 120.848 88.9762 120.532 89.2919C120.217 89.6076 119.789 89.785 119.342 89.785Z" fill="#6C63FF"/>
</g>
<g filter="url(#filter9_d_1_3)">
<path d="M90.114 96.432H67.753C67.3065 96.432 66.8783 96.2546 66.5626 95.9389C66.2469 95.6232 66.0695 95.195 66.0695 94.7485C66.0695 94.302 66.2469 93.8738 66.5626 93.5581C66.8783 93.2424 67.3065 93.065 67.753 93.065H90.114C90.5605 93.065 90.9887 93.2424 91.3044 93.5581C91.6202 93.8738 91.7975 94.302 91.7975 94.7485C91.7975 95.195 91.6202 95.6232 91.3044 95.9389C90.9887 96.2546 90.5605 96.432 90.114 96.432Z" fill="#6C63FF"/>
</g>
<path d="M136.477 98.111C140.17 98.111 143.163 95.1176 143.163 91.425C143.163 87.7324 140.17 84.739 136.477 84.739C132.784 84.739 129.791 87.7324 129.791 91.425C129.791 95.1176 132.784 98.111 136.477 98.111Z" fill="#E6E6E6"/>
<path d="M135.367 93.828H135.324C135.199 93.8218 135.076 93.7885 134.964 93.7305C134.853 93.6725 134.755 93.5912 134.678 93.492L133.56 92.058C133.489 91.9673 133.438 91.8635 133.407 91.7527C133.377 91.6419 133.368 91.5262 133.383 91.4121C133.397 91.2981 133.434 91.188 133.49 91.0881C133.547 90.9882 133.623 90.9006 133.714 90.83L133.754 90.7981C133.845 90.7274 133.948 90.6753 134.059 90.6448C134.17 90.6143 134.286 90.606 134.4 90.6203C134.514 90.6346 134.624 90.6712 134.724 90.7282C134.824 90.7851 134.912 90.8612 134.982 90.9521C135.038 91.0245 135.11 91.0838 135.191 91.1261C135.273 91.1684 135.363 91.1926 135.454 91.1971C135.546 91.2016 135.638 91.1862 135.723 91.152C135.808 91.1178 135.885 91.0656 135.948 90.999L138.215 88.599C138.375 88.4307 138.595 88.3326 138.826 88.3263C139.058 88.3199 139.283 88.4057 139.452 88.565L139.489 88.6001C139.573 88.679 139.64 88.7736 139.687 88.8785C139.734 88.9834 139.759 89.0965 139.763 89.2115C139.766 89.3264 139.746 89.4408 139.705 89.5481C139.664 89.6555 139.602 89.7537 139.523 89.8371L136.002 93.5531C135.92 93.6394 135.822 93.708 135.713 93.755C135.603 93.8019 135.486 93.8261 135.367 93.826V93.828Z" fill="white"/>
<g filter="url(#filter10_d_1_3)">
<path d="M119.342 125.365H67.753C67.3065 125.365 66.8783 125.188 66.5626 124.872C66.2469 124.556 66.0695 124.128 66.0695 123.682C66.0695 123.235 66.2469 122.807 66.5626 122.491C66.8783 122.175 67.3065 121.998 67.753 121.998H119.342C119.789 121.998 120.217 122.175 120.532 122.491C120.848 122.807 121.026 123.235 121.026 123.682C121.026 124.128 120.848 124.556 120.532 124.872C120.217 125.188 119.789 125.365 119.342 125.365Z" fill="#6C63FF"/>
</g>
<g filter="url(#filter11_d_1_3)">
<path d="M90.114 132.012H67.753C67.3065 132.012 66.8783 131.835 66.5626 131.519C66.2469 131.203 66.0695 130.775 66.0695 130.328C66.0695 129.882 66.2469 129.454 66.5626 129.138C66.8783 128.822 67.3065 128.645 67.753 128.645H90.114C90.5605 128.645 90.9887 128.822 91.3044 129.138C91.6202 129.454 91.7975 129.882 91.7975 130.328C91.7975 130.775 91.6202 131.203 91.3044 131.519C90.9887 131.835 90.5605 132.012 90.114 132.012Z" fill="#6C63FF"/>
</g>
<path d="M136.477 133.69C140.17 133.69 143.163 130.697 143.163 127.004C143.163 123.311 140.17 120.318 136.477 120.318C132.784 120.318 129.791 123.311 129.791 127.004C129.791 130.697 132.784 133.69 136.477 133.69Z" fill="#E6E6E6"/>
<path d="M135.367 129.407H135.324C135.199 129.401 135.076 129.367 134.964 129.309C134.853 129.251 134.755 129.17 134.678 129.071L133.56 127.637C133.489 127.546 133.438 127.443 133.407 127.332C133.377 127.221 133.368 127.105 133.383 126.991C133.397 126.877 133.434 126.767 133.49 126.667C133.547 126.567 133.623 126.48 133.714 126.409L133.754 126.377C133.845 126.306 133.948 126.254 134.059 126.224C134.17 126.193 134.286 126.185 134.4 126.199C134.514 126.214 134.624 126.25 134.724 126.307C134.824 126.364 134.912 126.44 134.982 126.531C135.038 126.603 135.11 126.663 135.191 126.705C135.273 126.747 135.363 126.772 135.454 126.776C135.546 126.781 135.638 126.765 135.723 126.731C135.808 126.697 135.885 126.645 135.948 126.578L138.215 124.178C138.375 124.01 138.595 123.912 138.826 123.905C139.058 123.899 139.283 123.985 139.452 124.144L139.489 124.179C139.573 124.258 139.64 124.353 139.687 124.457C139.734 124.562 139.759 124.676 139.763 124.79C139.766 124.905 139.746 125.02 139.705 125.127C139.664 125.234 139.602 125.333 139.523 125.416L136.002 129.132C135.92 129.218 135.822 129.287 135.713 129.334C135.603 129.381 135.486 129.405 135.367 129.405V129.407Z" fill="white"/>
<path d="M119.342 160.944H67.753C67.3065 160.944 66.8783 160.767 66.5626 160.451C66.2469 160.135 66.0695 159.707 66.0695 159.26C66.0695 158.814 66.2469 158.386 66.5626 158.07C66.8783 157.754 67.3065 157.577 67.753 157.577H119.342C119.789 157.577 120.217 157.754 120.532 158.07C120.848 158.386 121.026 158.814 121.026 159.26C121.026 159.707 120.848 160.135 120.532 160.451C120.217 160.767 119.789 160.944 119.342 160.944Z" fill="#E6E6E6"/>
<path d="M90.114 167.591H67.753C67.3065 167.591 66.8783 167.414 66.5626 167.098C66.2469 166.782 66.0695 166.354 66.0695 165.908C66.0695 165.461 66.2469 165.033 66.5626 164.717C66.8783 164.401 67.3065 164.224 67.753 164.224H90.114C90.5605 164.224 90.9887 164.401 91.3044 164.717C91.6202 165.033 91.7975 165.461 91.7975 165.908C91.7975 166.354 91.6202 166.782 91.3044 167.098C90.9887 167.414 90.5605 167.591 90.114 167.591Z" fill="#E6E6E6"/>
<path d="M136.477 169.27C140.17 169.27 143.163 166.277 143.163 162.584C143.163 158.891 140.17 155.898 136.477 155.898C132.784 155.898 129.791 158.891 129.791 162.584C129.791 166.277 132.784 169.27 136.477 169.27Z" fill="#E6E6E6"/>
<path d="M135.367 164.987H135.324C135.199 164.981 135.076 164.947 134.964 164.889C134.853 164.832 134.755 164.75 134.678 164.651L133.56 163.217C133.489 163.126 133.438 163.023 133.407 162.912C133.377 162.801 133.368 162.685 133.383 162.571C133.397 162.457 133.434 162.347 133.49 162.247C133.547 162.147 133.623 162.06 133.714 161.989L133.754 161.957C133.845 161.886 133.948 161.834 134.059 161.804C134.17 161.773 134.286 161.765 134.4 161.779C134.514 161.794 134.624 161.83 134.724 161.887C134.824 161.944 134.912 162.02 134.982 162.111C135.038 162.183 135.11 162.243 135.191 162.285C135.273 162.327 135.363 162.352 135.454 162.356C135.546 162.361 135.638 162.345 135.723 162.311C135.808 162.277 135.885 162.225 135.948 162.158L138.215 159.758C138.375 159.59 138.595 159.492 138.826 159.485C139.058 159.479 139.283 159.565 139.452 159.724L139.489 159.759C139.573 159.838 139.64 159.933 139.687 160.038C139.734 160.142 139.759 160.256 139.763 160.37C139.766 160.485 139.746 160.6 139.705 160.707C139.664 160.814 139.602 160.913 139.523 160.996L136.002 164.712C135.92 164.798 135.822 164.867 135.713 164.914C135.603 164.961 135.486 164.985 135.367 164.985V164.987Z" fill="white"/>
<path d="M119.342 196.524H67.753C67.3065 196.524 66.8783 196.347 66.5626 196.031C66.2469 195.715 66.0695 195.287 66.0695 194.841C66.0695 194.394 66.2469 193.966 66.5626 193.65C66.8783 193.334 67.3065 193.157 67.753 193.157H119.342C119.789 193.157 120.217 193.334 120.532 193.65C120.848 193.966 121.026 194.394 121.026 194.841C121.026 195.287 120.848 195.715 120.532 196.031C120.217 196.347 119.789 196.524 119.342 196.524Z" fill="#E6E6E6"/>
<path d="M90.114 203.171H67.753C67.3065 203.171 66.8783 202.994 66.5626 202.678C66.2469 202.362 66.0695 201.934 66.0695 201.487C66.0695 201.041 66.2469 200.613 66.5626 200.297C66.8783 199.981 67.3065 199.804 67.753 199.804H90.114C90.5605 199.804 90.9887 199.981 91.3044 200.297C91.6202 200.613 91.7975 201.041 91.7975 201.487C91.7975 201.934 91.6202 202.362 91.3044 202.678C90.9887 202.994 90.5605 203.171 90.114 203.171Z" fill="#E6E6E6"/>
<path d="M136.477 204.85C140.17 204.85 143.163 201.857 143.163 198.164C143.163 194.471 140.17 191.478 136.477 191.478C132.784 191.478 129.791 194.471 129.791 198.164C129.791 201.857 132.784 204.85 136.477 204.85Z" fill="#E6E6E6"/>
<path d="M135.367 200.567H135.324C135.199 200.561 135.076 200.527 134.964 200.469C134.853 200.411 134.755 200.33 134.678 200.231L133.56 198.797C133.489 198.706 133.438 198.603 133.407 198.492C133.377 198.381 133.368 198.265 133.383 198.151C133.397 198.037 133.434 197.927 133.49 197.827C133.547 197.727 133.623 197.64 133.714 197.569L133.754 197.537C133.845 197.466 133.948 197.414 134.059 197.384C134.17 197.353 134.286 197.345 134.4 197.359C134.514 197.374 134.624 197.41 134.724 197.467C134.824 197.524 134.912 197.6 134.982 197.691C135.038 197.763 135.11 197.823 135.191 197.865C135.273 197.907 135.363 197.932 135.454 197.936C135.546 197.941 135.638 197.925 135.723 197.891C135.808 197.857 135.885 197.805 135.948 197.738L138.215 195.338C138.375 195.17 138.595 195.072 138.826 195.065C139.058 195.059 139.283 195.145 139.452 195.304L139.489 195.339C139.573 195.418 139.64 195.513 139.687 195.617C139.734 195.722 139.759 195.836 139.763 195.95C139.766 196.065 139.746 196.18 139.705 196.287C139.664 196.394 139.602 196.493 139.523 196.576L136.002 200.292C135.92 200.378 135.822 200.447 135.713 200.494C135.603 200.541 135.486 200.565 135.367 200.565V200.567Z" fill="white"/>
<path d="M754.068 98.11H656.706C656.626 98.11 656.55 98.0784 656.494 98.0221C656.437 97.9659 656.406 97.8896 656.406 97.81C656.406 95.701 754.373 97.642 754.373 97.81C754.373 97.8498 754.365 97.8892 754.35 97.926C754.334 97.9627 754.312 97.996 754.283 98.0239C754.255 98.0518 754.221 98.0738 754.184 98.0886C754.147 98.1034 754.108 98.1106 754.068 98.11Z" fill="#090814"/>
<g filter="url(#filter12_d_1_3)">
<path d="M677.506 94.759H668.651C668.413 94.7577 668.184 94.6624 668.016 94.4939C667.847 94.3254 667.752 94.0973 667.751 93.859V81.652C667.752 81.4137 667.847 81.1856 668.016 81.0171C668.184 80.8486 668.413 80.7533 668.651 80.752H677.506C677.744 80.7533 677.972 80.8486 678.141 81.0171C678.309 81.1856 678.405 81.4137 678.406 81.652V93.852C678.406 94.0915 678.312 94.3214 678.143 94.4915C677.975 94.6615 677.745 94.7577 677.506 94.759Z" fill="#6C63FF"/>
</g>
<path d="M693.656 94.759H684.801C684.563 94.7577 684.334 94.6625 684.166 94.494C683.997 94.3255 683.902 94.0973 683.901 93.859V70.069C683.902 69.8307 683.997 69.6026 684.166 69.4341C684.334 69.2656 684.563 69.1703 684.801 69.169H693.656C693.894 69.1703 694.122 69.2656 694.291 69.4341C694.459 69.6026 694.555 69.8307 694.556 70.069V93.851C694.557 94.0907 694.462 94.3209 694.294 94.4911C694.125 94.6613 693.896 94.7577 693.656 94.759Z" fill="#CCCCCC" fill-opacity="0.16"/>
<g filter="url(#filter13_d_1_3)">
<path d="M709.802 94.759H700.947C700.709 94.7577 700.48 94.6624 700.312 94.4939C700.143 94.3254 700.048 94.0973 700.047 93.859V81.652C700.048 81.4137 700.143 81.1856 700.312 81.0171C700.48 80.8486 700.709 80.7533 700.947 80.752H709.802C710.04 80.7533 710.268 80.8486 710.437 81.0171C710.605 81.1856 710.701 81.4137 710.702 81.652V93.852C710.702 94.0915 710.608 94.3214 710.439 94.4915C710.271 94.6615 710.041 94.7577 709.802 94.759Z" fill="#6C63FF"/>
</g>
<g filter="url(#filter14_d_1_3)">
<path d="M725.952 94.759H717.097C716.863 94.7628 716.638 94.6743 716.469 94.5127C716.301 94.3511 716.203 94.1295 716.197 93.8961V65.459C716.203 65.2256 716.301 65.004 716.469 64.8424C716.638 64.6808 716.863 64.5923 717.097 64.596H725.952C726.185 64.5923 726.411 64.6808 726.579 64.8424C726.748 65.004 726.846 65.2256 726.852 65.459V93.8961C726.846 94.1295 726.748 94.3511 726.579 94.5127C726.411 94.6743 726.185 94.7628 725.952 94.759Z" fill="#6C63FF"/>
</g>
<g filter="url(#filter15_d_1_3)">
<path d="M742.102 94.76H733.247C733.009 94.7587 732.78 94.6634 732.612 94.4949C732.443 94.3264 732.348 94.0983 732.347 93.86V57.274C732.348 57.0357 732.443 56.8076 732.612 56.6391C732.78 56.4706 733.009 56.3753 733.247 56.374H742.102C742.34 56.3753 742.568 56.4706 742.737 56.6391C742.905 56.8076 743.001 57.0357 743.002 57.274V93.855C743.002 94.0942 742.907 94.3236 742.739 94.4932C742.57 94.6627 742.341 94.7587 742.102 94.76Z" fill="#6C63FF"/>
</g>
<defs>
<filter id="filter0_d_1_3" x="62.072" y="388.074" width="18.626" height="18.626" filterUnits="userSpaceOnUse" color-interpolation-filters="sRGB">
<feFlood flood-opacity="0" result="BackgroundImageFix"/>
<feColorMatrix in="SourceAlpha" type="matrix" values="0 0 0 0 0 0 0 0 0 0 0 0 0 0 0 0 0 0 127 0" result="hardAlpha"/>
<feOffset dy="4"/>
<feGaussianBlur stdDeviation="2"/>
<feComposite in2="hardAlpha" operator="out"/>
<feColorMatrix type="matrix" values="0 0 0 0 0 0 0 0 0 0 0 0 0 0 0 0 0 0 0.25 0"/>
<feBlend mode="normal" in2="BackgroundImageFix" result="effect1_dropShadow_1_3"/>
<feBlend mode="normal" in="SourceGraphic" in2="effect1_dropShadow_1_3" result="shape"/>
</filter>
<filter id="filter1_d_1_3" x="116.062" y="388.074" width="18.626" height="18.626" filterUnits="userSpaceOnUse" color-interpolation-filters="sRGB">
<feFlood flood-opacity="0" result="BackgroundImageFix"/>
<feColorMatrix in="SourceAlpha" type="matrix" values="0 0 0 0 0 0 0 0 0 0 0 0 0 0 0 0 0 0 127 0" result="hardAlpha"/>
<feOffset dy="4"/>
<feGaussianBlur stdDeviation="2"/>
<feComposite in2="hardAlpha" operator="out"/>
<feColorMatrix type="matrix" values="0 0 0 0 0 0 0 0 0 0 0 0 0 0 0 0 0 0 0.25 0"/>
<feBlend mode="normal" in2="BackgroundImageFix" result="effect1_dropShadow_1_3"/>
<feBlend mode="normal" in="SourceGraphic" in2="effect1_dropShadow_1_3" result="shape"/>
</filter>
<filter id="filter2_d_1_3" x="167.062" y="388.074" width="18.626" height="18.626" filterUnits="userSpaceOnUse" color-interpolation-filters="sRGB">
<feFlood flood-opacity="0" result="BackgroundImageFix"/>
<feColorMatrix in="SourceAlpha" type="matrix" values="0 0 0 0 0 0 0 0 0 0 0 0 0 0 0 0 0 0 127 0" result="hardAlpha"/>
<feOffset dy="4"/>
<feGaussianBlur stdDeviation="2"/>
<feComposite in2="hardAlpha" operator="out"/>
<feColorMatrix type="matrix" values="0 0 0 0 0 0 0 0 0 0 0 0 0 0 0 0 0 0 0.25 0"/>
<feBlend mode="normal" in2="BackgroundImageFix" result="effect1_dropShadow_1_3"/>
<feBlend mode="normal" in="SourceGraphic" in2="effect1_dropShadow_1_3" result="shape"/>
</filter>
<filter id="filter3_d_1_3" x="242.703" y="388.074" width="18.626" height="18.626" filterUnits="userSpaceOnUse" color-interpolation-filters="sRGB">
<feFlood flood-opacity="0" result="BackgroundImageFix"/>
<feColorMatrix in="SourceAlpha" type="matrix" values="0 0 0 0 0 0 0 0 0 0 0 0 0 0 0 0 0 0 127 0" result="hardAlpha"/>
<feOffset dy="4"/>
<feGaussianBlur stdDeviation="2"/>
<feComposite in2="hardAlpha" operator="out"/>
<feColorMatrix type="matrix" values="0 0 0 0 0 0 0 0 0 0 0 0 0 0 0 0 0 0 0.25 0"/>
<feBlend mode="normal" in2="BackgroundImageFix" result="effect1_dropShadow_1_3"/>
<feBlend mode="normal" in="SourceGraphic" in2="effect1_dropShadow_1_3" result="shape"/>
</filter>
<filter id="filter4_d_1_3" x="216.687" y="388.074" width="18.626" height="18.626" filterUnits="userSpaceOnUse" color-interpolation-filters="sRGB">
<feFlood flood-opacity="0" result="BackgroundImageFix"/>
<feColorMatrix in="SourceAlpha" type="matrix" values="0 0 0 0 0 0 0 0 0 0 0 0 0 0 0 0 0 0 127 0" result="hardAlpha"/>
<feOffset dy="4"/>
<feGaussianBlur stdDeviation="2"/>
<feComposite in2="hardAlpha" operator="out"/>
<feColorMatrix type="matrix" values="0 0 0 0 0 0 0 0 0 0 0 0 0 0 0 0 0 0 0.25 0"/>
<feBlend mode="normal" in2="BackgroundImageFix" result="effect1_dropShadow_1_3"/>
<feBlend mode="normal" in="SourceGraphic" in2="effect1_dropShadow_1_3" result="shape"/>
</filter>
<filter id="filter5_d_1_3" x="62.0695" y="50.838" width="62.956" height="11.367" filterUnits="userSpaceOnUse" color-interpolation-filters="sRGB">
<feFlood flood-opacity="0" result="BackgroundImageFix"/>
<feColorMatrix in="SourceAlpha" type="matrix" values="0 0 0 0 0 0 0 0 0 0 0 0 0 0 0 0 0 0 127 0" result="hardAlpha"/>
<feOffset dy="4"/>
<feGaussianBlur stdDeviation="2"/>
<feComposite in2="hardAlpha" operator="out"/>
<feColorMatrix type="matrix" values="0 0 0 0 0 0 0 0 0 0 0 0 0 0 0 0 0 0 0.25 0"/>
<feBlend mode="normal" in2="BackgroundImageFix" result="effect1_dropShadow_1_3"/>
<feBlend mode="normal" in="SourceGraphic" in2="effect1_dropShadow_1_3" result="shape"/>
</filter>
<filter id="filter6_d_1_3" x="62.0695" y="57.484" width="33.728" height="11.367" filterUnits="userSpaceOnUse" color-interpolation-filters="sRGB">
<feFlood flood-opacity="0" result="BackgroundImageFix"/>
<feColorMatrix in="SourceAlpha" type="matrix" values="0 0 0 0 0 0 0 0 0 0 0 0 0 0 0 0 0 0 127 0" result="hardAlpha"/>
<feOffset dy="4"/>
<feGaussianBlur stdDeviation="2"/>
<feComposite in2="hardAlpha" operator="out"/>
<feColorMatrix type="matrix" values="0 0 0 0 0 0 0 0 0 0 0 0 0 0 0 0 0 0 0.25 0"/>
<feBlend mode="normal" in2="BackgroundImageFix" result="effect1_dropShadow_1_3"/>
<feBlend mode="normal" in="SourceGraphic" in2="effect1_dropShadow_1_3" result="shape"/>
</filter>
<filter id="filter7_d_1_3" x="125.791" y="49.159" width="21.372" height="21.372" filterUnits="userSpaceOnUse" color-interpolation-filters="sRGB">
<feFlood flood-opacity="0" result="BackgroundImageFix"/>
<feColorMatrix in="SourceAlpha" type="matrix" values="0 0 0 0 0 0 0 0 0 0 0 0 0 0 0 0 0 0 127 0" result="hardAlpha"/>
<feOffset dy="4"/>
<feGaussianBlur stdDeviation="2"/>
<feComposite in2="hardAlpha" operator="out"/>
<feColorMatrix type="matrix" values="0 0 0 0 0 0 0 0 0 0 0 0 0 0 0 0 0 0 0.25 0"/>
<feBlend mode="normal" in2="BackgroundImageFix" result="effect1_dropShadow_1_3"/>
<feBlend mode="normal" in="SourceGraphic" in2="effect1_dropShadow_1_3" result="shape"/>
</filter>
<filter id="filter8_d_1_3" x="62.0695" y="86.418" width="62.956" height="11.367" filterUnits="userSpaceOnUse" color-interpolation-filters="sRGB">
<feFlood flood-opacity="0" result="BackgroundImageFix"/>
<feColorMatrix in="SourceAlpha" type="matrix" values="0 0 0 0 0 0 0 0 0 0 0 0 0 0 0 0 0 0 127 0" result="hardAlpha"/>
<feOffset dy="4"/>
<feGaussianBlur stdDeviation="2"/>
<feComposite in2="hardAlpha" operator="out"/>
<feColorMatrix type="matrix" values="0 0 0 0 0 0 0 0 0 0 0 0 0 0 0 0 0 0 0.25 0"/>
<feBlend mode="normal" in2="BackgroundImageFix" result="effect1_dropShadow_1_3"/>
<feBlend mode="normal" in="SourceGraphic" in2="effect1_dropShadow_1_3" result="shape"/>
</filter>
<filter id="filter9_d_1_3" x="62.0695" y="93.065" width="33.728" height="11.367" filterUnits="userSpaceOnUse" color-interpolation-filters="sRGB">
<feFlood flood-opacity="0" result="BackgroundImageFix"/>
<feColorMatrix in="SourceAlpha" type="matrix" values="0 0 0 0 0 0 0 0 0 0 0 0 0 0 0 0 0 0 127 0" result="hardAlpha"/>
<feOffset dy="4"/>
<feGaussianBlur stdDeviation="2"/>
<feComposite in2="hardAlpha" operator="out"/>
<feColorMatrix type="matrix" values="0 0 0 0 0 0 0 0 0 0 0 0 0 0 0 0 0 0 0.25 0"/>
<feBlend mode="normal" in2="BackgroundImageFix" result="effect1_dropShadow_1_3"/>
<feBlend mode="normal" in="SourceGraphic" in2="effect1_dropShadow_1_3" result="shape"/>
</filter>
<filter id="filter10_d_1_3" x="62.0695" y="121.998" width="62.956" height="11.367" filterUnits="userSpaceOnUse" color-interpolation-filters="sRGB">
<feFlood flood-opacity="0" result="BackgroundImageFix"/>
<feColorMatrix in="SourceAlpha" type="matrix" values="0 0 0 0 0 0 0 0 0 0 0 0 0 0 0 0 0 0 127 0" result="hardAlpha"/>
<feOffset dy="4"/>
<feGaussianBlur stdDeviation="2"/>
<feComposite in2="hardAlpha" operator="out"/>
<feColorMatrix type="matrix" values="0 0 0 0 0 0 0 0 0 0 0 0 0 0 0 0 0 0 0.25 0"/>
<feBlend mode="normal" in2="BackgroundImageFix" result="effect1_dropShadow_1_3"/>
<feBlend mode="normal" in="SourceGraphic" in2="effect1_dropShadow_1_3" result="shape"/>
</filter>
<filter id="filter11_d_1_3" x="62.0695" y="128.645" width="33.728" height="11.367" filterUnits="userSpaceOnUse" color-interpolation-filters="sRGB">
<feFlood flood-opacity="0" result="BackgroundImageFix"/>
<feColorMatrix in="SourceAlpha" type="matrix" values="0 0 0 0 0 0 0 0 0 0 0 0 0 0 0 0 0 0 127 0" result="hardAlpha"/>
<feOffset dy="4"/>
<feGaussianBlur stdDeviation="2"/>
<feComposite in2="hardAlpha" operator="out"/>
<feColorMatrix type="matrix" values="0 0 0 0 0 0 0 0 0 0 0 0 0 0 0 0 0 0 0.25 0"/>
<feBlend mode="normal" in2="BackgroundImageFix" result="effect1_dropShadow_1_3"/>
<feBlend mode="normal" in="SourceGraphic" in2="effect1_dropShadow_1_3" result="shape"/>
</filter>
<filter id="filter12_d_1_3" x="663.751" y="80.752" width="18.655" height="22.007" filterUnits="userSpaceOnUse" color-interpolation-filters="sRGB">
<feFlood flood-opacity="0" result="BackgroundImageFix"/>
<feColorMatrix in="SourceAlpha" type="matrix" values="0 0 0 0 0 0 0 0 0 0 0 0 0 0 0 0 0 0 127 0" result="hardAlpha"/>
<feOffset dy="4"/>
<feGaussianBlur stdDeviation="2"/>
<feComposite in2="hardAlpha" operator="out"/>
<feColorMatrix type="matrix" values="0 0 0 0 0 0 0 0 0 0 0 0 0 0 0 0 0 0 0.25 0"/>
<feBlend mode="normal" in2="BackgroundImageFix" result="effect1_dropShadow_1_3"/>
<feBlend mode="normal" in="SourceGraphic" in2="effect1_dropShadow_1_3" result="shape"/>
</filter>
<filter id="filter13_d_1_3" x="696.047" y="80.752" width="18.655" height="22.007" filterUnits="userSpaceOnUse" color-interpolation-filters="sRGB">
<feFlood flood-opacity="0" result="BackgroundImageFix"/>
<feColorMatrix in="SourceAlpha" type="matrix" values="0 0 0 0 0 0 0 0 0 0 0 0 0 0 0 0 0 0 127 0" result="hardAlpha"/>
<feOffset dy="4"/>
<feGaussianBlur stdDeviation="2"/>
<feComposite in2="hardAlpha" operator="out"/>
<feColorMatrix type="matrix" values="0 0 0 0 0 0 0 0 0 0 0 0 0 0 0 0 0 0 0.25 0"/>
<feBlend mode="normal" in2="BackgroundImageFix" result="effect1_dropShadow_1_3"/>
<feBlend mode="normal" in="SourceGraphic" in2="effect1_dropShadow_1_3" result="shape"/>
</filter>
<filter id="filter14_d_1_3" x="712.197" y="64.5959" width="18.655" height="38.1632" filterUnits="userSpaceOnUse" color-interpolation-filters="sRGB">
<feFlood flood-opacity="0" result="BackgroundImageFix"/>
<feColorMatrix in="SourceAlpha" type="matrix" values="0 0 0 0 0 0 0 0 0 0 0 0 0 0 0 0 0 0 127 0" result="hardAlpha"/>
<feOffset dy="4"/>
<feGaussianBlur stdDeviation="2"/>
<feComposite in2="hardAlpha" operator="out"/>
<feColorMatrix type="matrix" values="0 0 0 0 0 0 0 0 0 0 0 0 0 0 0 0 0 0 0.25 0"/>
<feBlend mode="normal" in2="BackgroundImageFix" result="effect1_dropShadow_1_3"/>
<feBlend mode="normal" in="SourceGraphic" in2="effect1_dropShadow_1_3" result="shape"/>
</filter>
<filter id="filter15_d_1_3" x="728.347" y="56.374" width="18.655" height="46.386" filterUnits="userSpaceOnUse" color-interpolation-filters="sRGB">
<feFlood flood-opacity="0" result="BackgroundImageFix"/>
<feColorMatrix in="SourceAlpha" type="matrix" values="0 0 0 0 0 0 0 0 0 0 0 0 0 0 0 0 0 0 127 0" result="hardAlpha"/>
<feOffset dy="4"/>
<feGaussianBlur stdDeviation="2"/>
<feComposite in2="hardAlpha" operator="out"/>
<feColorMatrix type="matrix" values="0 0 0 0 0 0 0 0 0 0 0 0 0 0 0 0 0 0 0.25 0"/>
<feBlend mode="normal" in2="BackgroundImageFix" result="effect1_dropShadow_1_3"/>
<feBlend mode="normal" in="SourceGraphic" in2="effect1_dropShadow_1_3" result="shape"/>
</filter>
</defs>
</svg>
